<?xml version="1.0" encoding="utf-8"?>
<!-- Generator: Adobe Illustrator 16.0.0, SVG Export Plug-In . SVG Version: 6.00 Build 0)  -->
<!DOCTYPE svg PUBLIC "-//W3C//DTD SVG 1.1//EN" "http://www.w3.org/Graphics/SVG/1.1/DTD/svg11.dtd">
<svg version="1.1" id="Ebene_1" xmlns="http://www.w3.org/2000/svg" xmlns:xlink="http://www.w3.org/1999/xlink" x="0px" y="0px"
	 width="90px" height="30px" viewBox="0 0 90 30" enable-background="new 0 0 90 30" xml:space="preserve">
<g opacity="0.9">
	<polygon fill="#FBFDFF" points="22.214,8.939 22.214,18.656 13.816,23.504 5.42,18.656 5.42,8.959 13.78,4.132 13.78,-1.184 
		0.798,6.312 0.798,21.303 13.78,28.799 26.763,21.303 26.763,11.575 	"/>
	<polygon opacity="0.7" fill="#FBFDFF" points="13.78,4.08 13.78,9.396 13.816,9.374 22.214,14.223 22.214,14.501 26.763,14.501 
		26.763,11.575 	"/>
</g>
<g opacity="0.9">
	<g>
		<path fill-opacity="0.2" d="M39.006,23.111c1.111,0,1.97-0.309,2.578-0.926s0.911-1.451,0.911-2.501
			c0-0.556-0.093-1.05-0.278-1.481c-0.186-0.433-0.428-0.823-0.726-1.174c-0.298-0.35-0.644-0.668-1.034-0.957
			c-0.391-0.289-0.792-0.576-1.204-0.864c-0.474-0.329-0.967-0.68-1.482-1.05c-0.515-0.372-0.983-0.803-1.405-1.297
			c-0.422-0.494-0.767-1.07-1.034-1.729c-0.268-0.658-0.401-1.43-0.401-2.315c0-0.865,0.149-1.646,0.447-2.346
			c0.298-0.699,0.71-1.296,1.235-1.791c0.525-0.494,1.153-0.875,1.884-1.143c0.73-0.267,1.518-0.402,2.362-0.402
			c0.823,0,1.584,0.103,2.284,0.309s1.286,0.453,1.76,0.741l-0.865,2.192c-0.432-0.288-0.901-0.509-1.405-0.664
			c-0.504-0.154-1.034-0.231-1.59-0.231c-1.008,0-1.816,0.272-2.423,0.818c-0.607,0.545-0.911,1.342-0.911,2.392
			c0,0.577,0.097,1.081,0.293,1.513c0.196,0.433,0.453,0.824,0.772,1.174c0.319,0.35,0.689,0.669,1.112,0.957
			c0.421,0.289,0.869,0.587,1.342,0.896c0.474,0.309,0.958,0.648,1.452,1.019c0.494,0.37,0.941,0.797,1.343,1.28
			c0.401,0.484,0.73,1.051,0.988,1.699c0.257,0.647,0.386,1.415,0.386,2.3c0,0.802-0.124,1.564-0.371,2.284
			c-0.247,0.722-0.633,1.354-1.158,1.899s-1.184,0.978-1.977,1.297c-0.792,0.317-1.724,0.479-2.794,0.479
			c-0.987,0-1.852-0.114-2.593-0.34c-0.741-0.227-2.072-0.81-2.648-1.18v-2.458l1.493,0.651c0.535,0.33,1.129,0.46,1.696,0.655
			C37.611,23.014,38.265,23.111,39.006,23.111z"/>
		<path fill-opacity="0.2" d="M49.379,9.156c0.535-0.226,1.102-0.406,1.698-0.541c0.597-0.134,1.246-0.201,1.945-0.201
			c1.44,0,2.614,0.447,3.52,1.343c0.906,0.896,1.358,2.29,1.358,4.184v10.743c-0.741,0.207-1.498,0.371-2.269,0.495
			c-0.773,0.122-1.528,0.185-2.271,0.185c-0.74,0-1.435-0.093-2.083-0.278c-0.648-0.185-1.216-0.482-1.697-0.896
			c-0.484-0.411-0.87-0.931-1.159-1.558c-0.288-0.628-0.432-1.396-0.432-2.302c0-0.844,0.128-1.579,0.386-2.206
			c0.257-0.628,0.612-1.153,1.065-1.575s0.988-0.742,1.605-0.957c0.617-0.216,1.286-0.324,2.006-0.324
			c0.681,0,1.432,0.082,2.254,0.247v-1.482c0-1.194-0.231-2.028-0.693-2.501c-0.464-0.473-1.127-0.71-1.992-0.71
			c-0.473,0-0.922,0.046-1.343,0.139c-0.422,0.093-0.871,0.242-1.343,0.448L49.379,9.156z M50.646,20.303
			c0,0.946,0.247,1.646,0.741,2.099s1.193,0.681,2.1,0.681c0.556,0,1.162-0.072,1.82-0.217v-5.156
			c-0.617-0.164-1.224-0.248-1.82-0.248c-0.392,0-0.763,0.047-1.111,0.139c-0.351,0.094-0.654,0.249-0.911,0.464
			c-0.259,0.217-0.458,0.505-0.603,0.864C50.717,19.289,50.646,19.747,50.646,20.303z"/>
		<path fill-opacity="0.2" d="M62.778,9.156c0.536-0.226,1.102-0.406,1.699-0.541c0.597-0.134,1.244-0.201,1.944-0.201
			c1.442,0,2.614,0.447,3.521,1.343c0.904,0.896,1.357,2.29,1.357,4.184v10.743c-0.74,0.207-1.497,0.371-2.269,0.495
			c-0.771,0.122-1.529,0.185-2.269,0.185c-0.742,0-1.438-0.093-2.085-0.278c-0.648-0.185-1.214-0.482-1.698-0.896
			c-0.484-0.411-0.87-0.931-1.157-1.558c-0.289-0.628-0.433-1.396-0.433-2.302c0-0.844,0.128-1.579,0.386-2.206
			c0.258-0.628,0.612-1.153,1.065-1.575c0.452-0.422,0.987-0.742,1.605-0.957c0.616-0.216,1.285-0.324,2.006-0.324
			c0.68,0,1.431,0.082,2.255,0.247v-1.482c0-1.194-0.232-2.028-0.694-2.501c-0.463-0.473-1.128-0.71-1.992-0.71
			c-0.474,0-0.921,0.046-1.343,0.139c-0.423,0.093-0.87,0.242-1.343,0.448L62.778,9.156z M64.045,20.303
			c0,0.946,0.247,1.646,0.74,2.099c0.494,0.453,1.194,0.681,2.1,0.681c0.556,0,1.163-0.072,1.822-0.217v-5.156
			c-0.617-0.164-1.225-0.248-1.822-0.248c-0.391,0-0.761,0.047-1.111,0.139c-0.351,0.094-0.654,0.249-0.91,0.464
			c-0.258,0.217-0.459,0.505-0.603,0.864C64.117,19.289,64.045,19.747,64.045,20.303z"/>
		<path fill-opacity="0.2" d="M78.771,23.111c1.111,0,1.971-0.309,2.578-0.926s0.911-1.451,0.911-2.501
			c0-0.556-0.092-1.05-0.278-1.481c-0.185-0.433-0.428-0.823-0.726-1.174c-0.298-0.35-0.644-0.668-1.035-0.957
			c-0.391-0.289-0.791-0.576-1.203-0.864c-0.474-0.329-0.968-0.68-1.481-1.05c-0.515-0.372-0.984-0.803-1.404-1.297
			c-0.424-0.494-0.768-1.07-1.036-1.729c-0.267-0.658-0.4-1.43-0.4-2.315c0-0.865,0.147-1.646,0.448-2.346
			c0.297-0.699,0.71-1.296,1.234-1.791c0.525-0.494,1.152-0.875,1.883-1.143c0.731-0.267,1.518-0.402,2.362-0.402
			c0.823,0,1.585,0.103,2.284,0.309c0.7,0.206,1.287,0.453,1.761,0.741l-0.865,2.192c-0.433-0.288-0.9-0.509-1.404-0.664
			c-0.505-0.154-1.034-0.231-1.59-0.231c-1.009,0-1.816,0.272-2.424,0.818c-0.607,0.545-0.911,1.342-0.911,2.392
			c0,0.577,0.098,1.081,0.294,1.513c0.195,0.433,0.452,0.824,0.771,1.174c0.319,0.35,0.69,0.669,1.112,0.957
			c0.423,0.289,0.869,0.587,1.343,0.896c0.475,0.309,0.957,0.648,1.452,1.019c0.493,0.37,0.941,0.797,1.342,1.28
			c0.402,0.484,0.731,1.051,0.988,1.699c0.257,0.647,0.387,1.415,0.387,2.3c0,0.802-0.125,1.564-0.371,2.284
			c-0.247,0.722-0.633,1.354-1.158,1.899c-0.524,0.546-1.184,0.978-1.975,1.297c-0.793,0.317-1.724,0.479-2.794,0.479
			c-0.988,0-1.854-0.114-2.595-0.34c-0.741-0.227-1.399-0.524-1.976-0.896l0.865-2.222c0.534,0.329,1.085,0.592,1.65,0.787
			C77.377,23.014,78.031,23.111,78.771,23.111z"/>
	</g>
	<path fill="#FBFDFF" d="M38.448,22.553c1.112,0,1.971-0.308,2.578-0.926c0.607-0.616,0.911-1.45,0.911-2.5
		c0-0.556-0.092-1.05-0.278-1.482c-0.185-0.432-0.427-0.823-0.725-1.173c-0.299-0.351-0.644-0.669-1.034-0.958
		c-0.392-0.287-0.793-0.575-1.205-0.863c-0.473-0.33-0.967-0.679-1.481-1.05c-0.515-0.37-0.983-0.802-1.405-1.297
		c-0.422-0.494-0.767-1.07-1.034-1.729c-0.268-0.658-0.401-1.431-0.401-2.316c0-0.864,0.149-1.646,0.448-2.346
		c0.298-0.7,0.71-1.297,1.235-1.792c0.524-0.494,1.152-0.874,1.883-1.142c0.73-0.267,1.518-0.401,2.362-0.401
		c0.823,0,1.585,0.103,2.285,0.308c0.699,0.207,1.286,0.453,1.759,0.741L43.481,5.82c-0.432-0.288-0.9-0.51-1.405-0.664
		c-0.505-0.155-1.034-0.231-1.59-0.231c-1.008,0-1.817,0.273-2.423,0.818c-0.607,0.545-0.911,1.343-0.911,2.394
		c0,0.576,0.098,1.08,0.293,1.512c0.196,0.433,0.452,0.823,0.772,1.173c0.318,0.35,0.689,0.669,1.111,0.957
		c0.421,0.289,0.87,0.587,1.343,0.896c0.473,0.308,0.957,0.648,1.451,1.019c0.494,0.371,0.942,0.797,1.344,1.281
		c0.401,0.484,0.73,1.05,0.988,1.698c0.257,0.648,0.386,1.416,0.386,2.3c0,0.804-0.124,1.565-0.371,2.286
		c-0.248,0.721-0.633,1.353-1.158,1.898s-1.184,0.978-1.976,1.297c-0.792,0.319-1.725,0.479-2.794,0.479
		c-0.988,0-1.852-0.114-2.593-0.34c-0.742-0.227-2.072-0.809-2.648-1.18v-2.457l1.493,0.65c0.535,0.33,1.129,0.461,1.696,0.655
		C37.054,22.457,37.708,22.553,38.448,22.553z"/>
	<path fill="#FBFDFF" d="M48.821,8.599c0.535-0.227,1.101-0.407,1.698-0.541c0.597-0.134,1.245-0.201,1.945-0.201
		c1.439,0,2.614,0.447,3.521,1.343c0.904,0.895,1.357,2.291,1.357,4.183v10.745c-0.741,0.206-1.497,0.37-2.269,0.494
		c-0.771,0.123-1.528,0.186-2.27,0.186c-0.74,0-1.436-0.093-2.084-0.278s-1.215-0.483-1.698-0.896s-0.87-0.931-1.158-1.56
		c-0.288-0.627-0.432-1.395-0.432-2.3c0-0.844,0.128-1.58,0.387-2.207c0.256-0.629,0.611-1.152,1.064-1.576
		c0.452-0.421,0.987-0.74,1.604-0.956c0.618-0.216,1.287-0.325,2.009-0.325c0.678,0,1.43,0.083,2.253,0.248v-1.483
		c0-1.193-0.231-2.027-0.695-2.5c-0.463-0.473-1.126-0.71-1.99-0.71c-0.475,0-0.922,0.046-1.344,0.139
		c-0.422,0.092-0.87,0.243-1.343,0.447L48.821,8.599z M50.087,19.745c0,0.947,0.248,1.646,0.742,2.099
		c0.493,0.453,1.193,0.68,2.1,0.68c0.556,0,1.162-0.072,1.821-0.217v-5.155c-0.617-0.165-1.225-0.248-1.821-0.248
		c-0.392,0-0.762,0.047-1.112,0.14s-0.654,0.247-0.91,0.463c-0.258,0.217-0.459,0.505-0.603,0.864
		C50.159,18.73,50.087,19.188,50.087,19.745z"/>
	<path fill="#FBFDFF" d="M62.221,8.599c0.535-0.227,1.101-0.407,1.699-0.541c0.597-0.134,1.244-0.201,1.944-0.201
		c1.441,0,2.613,0.447,3.52,1.343c0.905,0.895,1.358,2.291,1.358,4.183v10.745c-0.741,0.206-1.497,0.37-2.268,0.494
		c-0.773,0.123-1.529,0.186-2.271,0.186c-0.742,0-1.437-0.093-2.084-0.278c-0.648-0.186-1.214-0.483-1.697-0.896
		c-0.485-0.412-0.871-0.931-1.158-1.56c-0.288-0.627-0.433-1.395-0.433-2.3c0-0.844,0.128-1.58,0.386-2.207
		c0.258-0.629,0.612-1.152,1.065-1.576c0.453-0.421,0.986-0.74,1.604-0.956c0.618-0.216,1.286-0.325,2.008-0.325
		c0.679,0,1.431,0.083,2.254,0.248v-1.483c0-1.193-0.231-2.027-0.694-2.5c-0.464-0.473-1.127-0.71-1.993-0.71
		c-0.473,0-0.921,0.046-1.342,0.139c-0.422,0.092-0.87,0.243-1.343,0.447L62.221,8.599z M63.488,19.745
		c0,0.947,0.246,1.646,0.739,2.099c0.495,0.453,1.193,0.68,2.101,0.68c0.555,0,1.162-0.072,1.821-0.217v-5.155
		c-0.618-0.165-1.226-0.248-1.821-0.248c-0.392,0-0.762,0.047-1.113,0.14c-0.349,0.093-0.653,0.247-0.909,0.463
		c-0.259,0.217-0.459,0.505-0.604,0.864C63.56,18.73,63.488,19.188,63.488,19.745z"/>
	<path fill="#FBFDFF" d="M78.215,22.553c1.111,0,1.972-0.308,2.577-0.926c0.607-0.616,0.911-1.45,0.911-2.5
		c0-0.556-0.093-1.05-0.279-1.482c-0.185-0.432-0.426-0.823-0.725-1.173c-0.299-0.351-0.644-0.669-1.035-0.958
		c-0.391-0.287-0.791-0.575-1.203-0.863c-0.473-0.33-0.968-0.679-1.481-1.05c-0.515-0.37-0.983-0.802-1.405-1.297
		c-0.423-0.494-0.767-1.07-1.035-1.729c-0.268-0.658-0.4-1.431-0.4-2.316c0-0.864,0.148-1.646,0.448-2.346
		c0.298-0.7,0.71-1.297,1.235-1.792c0.524-0.494,1.152-0.874,1.882-1.142c0.731-0.267,1.519-0.401,2.362-0.401
		c0.823,0,1.585,0.103,2.285,0.308c0.699,0.207,1.286,0.453,1.759,0.741L83.247,5.82c-0.433-0.288-0.901-0.51-1.405-0.664
		c-0.504-0.155-1.035-0.231-1.59-0.231c-1.009,0-1.816,0.273-2.424,0.818c-0.608,0.545-0.912,1.343-0.912,2.394
		c0,0.576,0.1,1.08,0.295,1.512s0.451,0.823,0.771,1.173c0.32,0.35,0.69,0.669,1.112,0.957c0.422,0.289,0.869,0.587,1.344,0.896
		c0.473,0.308,0.956,0.648,1.45,1.019c0.494,0.371,0.941,0.797,1.344,1.281c0.401,0.484,0.73,1.05,0.988,1.698
		c0.255,0.648,0.386,1.416,0.386,2.3c0,0.804-0.123,1.565-0.371,2.286c-0.246,0.721-0.633,1.353-1.158,1.898
		c-0.524,0.546-1.183,0.978-1.976,1.297c-0.792,0.319-1.724,0.479-2.794,0.479c-0.987,0-1.853-0.114-2.594-0.34
		c-0.741-0.227-1.4-0.525-1.976-0.896l0.864-2.223c0.535,0.33,1.087,0.593,1.653,0.787C76.819,22.457,77.473,22.553,78.215,22.553z"
		/>
</g>
</svg>
