<?xml version="1.0" encoding="utf-8"?>
<!-- Generator: Adobe Illustrator 16.0.0, SVG Export Plug-In . SVG Version: 6.00 Build 0)  -->
<!DOCTYPE svg PUBLIC "-//W3C//DTD SVG 1.1//EN" "http://www.w3.org/Graphics/SVG/1.1/DTD/svg11.dtd">
<svg version="1.1" id="Ebene_1" xmlns="http://www.w3.org/2000/svg" xmlns:xlink="http://www.w3.org/1999/xlink" x="0px" y="0px"
	 width="281px" height="217px" viewBox="0 0 281 217" enable-background="new 0 0 281 217" xml:space="preserve">
<g opacity="0.9">
	
		<linearGradient id="SVGID_1_" gradientUnits="userSpaceOnUse" x1="-431.9775" y1="1047.2109" x2="-309.6894" y2="915.8782" gradientTransform="matrix(1 0 0 -1 544.395 1096.4102)">
		<stop  offset="0" style="stop-color:#2F96C1"/>
		<stop  offset="1" style="stop-color:#2F96C1;stop-opacity:0"/>
	</linearGradient>
	<polygon fill="url(#SVGID_1_)" points="200.006,60.438 200.006,105.25 141.446,138.656 80.433,105.044 80.344,105.134 
		185.76,210.846 186.756,209.846 194.732,201.846 195.73,200.846 281,139.875 	"/>
</g>
<polygon fill="#FBFDFF" points="179.19,48.376 179.19,93.144 140.499,115.481 101.81,93.144 101.81,48.468 140.331,26.226 
	140.331,1.735 80.516,36.27 80.516,105.34 140.331,139.875 200.147,105.34 200.147,60.52 "/>
<polygon opacity="0.7" fill="#FBFDFF" points="140.331,25.985 140.331,50.476 140.499,50.379 179.19,72.718 179.19,74 200.147,74 
	200.147,60.52 "/>
<g display="none">
	<g display="inline" opacity="0.1">
		<path fill="#010202" d="M189.385,180.313v-3.98h-11v-10h-4.77v10h-6.01v3.98h6.01v16.648c0,3.641,0.93,6.11,2.42,7.41
			c1.48,1.3,4.109,1.96,7.869,1.96c2.191,0,3.5-0.17,5.48-0.5v-3.97c-2.312,0.33-3.021,0.488-3.681,0.488
			c-2.521,0-5.069-0.358-5.899-1.078c-0.83-0.722-1.42-1.852-1.42-4v-16.961h11V180.313z M156.596,206.333h4.789v-30h-4.789V206.333
			z M156.596,171.303h4.789v-4.96h-4.789V171.303z M149.404,176.333h-6.229l-11.791,12.65v-22.65h-4.781v40h4.781v-15.4l12.838,15.4
			h6.361l-14.201-16.43L149.404,176.333z M113.625,206.333h4.76v-30h-4.76V206.333z M113.605,171.303h4.78v-4.96h-4.78V171.303z
			 M101.625,198.333c0,1.53-0.65,2.58-1.85,3.16c-1.2,0.58-3.22,0.87-6.32,0.87c-1.41,0-2.58-0.14-3.51-0.41
			c-0.93-0.261-2.03-0.66-2.42-1.17c-0.39-0.521-0.65-1.03-0.77-1.521c-0.13-0.5-0.37-1.118-0.37-1.858v-21.07h-4.77v21.38
			c0,2.89,0.55,5.05,2.04,6.479c1.49,1.421,4.22,2.141,8.18,2.141c6,0,9.16-1.43,9.74-4.28v4.28h4.81v-30h-4.76V198.333z"/>
	</g>
	<g display="inline">
		<g>
			<path fill="#FFFFFF" d="M189.385,179.313v-3.98h-11v-10h-4.77v10h-6.01v3.98h6.01v16.648c0,3.641,0.93,6.11,2.42,7.41
				c1.48,1.3,4.109,1.96,7.869,1.96c2.191,0,3.5-0.17,5.48-0.5v-3.97c-2.312,0.33-3.021,0.488-3.681,0.488
				c-2.521,0-5.069-0.358-5.899-1.078c-0.83-0.722-1.42-1.852-1.42-4v-16.961h11V179.313z M156.596,205.333h4.789v-30h-4.789
				V205.333z M156.596,170.303h4.789v-4.96h-4.789V170.303z M149.404,175.333h-6.229l-11.791,12.65v-22.65h-4.781v40h4.781v-15.4
				l12.838,15.4h6.361l-14.201-16.43L149.404,175.333z M113.625,205.333h4.76v-30h-4.76V205.333z M113.605,170.303h4.78v-4.96h-4.78
				V170.303z M101.625,197.333c0,1.53-0.65,2.58-1.85,3.16c-1.2,0.58-3.22,0.87-6.32,0.87c-1.41,0-2.58-0.14-3.51-0.41
				c-0.93-0.261-2.03-0.66-2.42-1.17c-0.39-0.521-0.65-1.03-0.77-1.521c-0.13-0.5-0.37-1.118-0.37-1.858v-21.07h-4.77v21.38
				c0,2.89,0.55,5.05,2.04,6.479c1.49,1.421,4.22,2.141,8.18,2.141c6,0,9.16-1.43,9.74-4.28v4.28h4.81v-30h-4.76V197.333z"/>
		</g>
	</g>
</g>
<g>
	<g>
		<path fill-opacity="0.2" d="M102.974,195.617c1.993,0,3.534-0.554,4.624-1.661c1.088-1.107,1.633-2.603,1.633-4.484
			c0-0.997-0.166-1.883-0.498-2.658c-0.333-0.775-0.767-1.477-1.301-2.104c-0.536-0.627-1.154-1.199-1.855-1.717
			c-0.702-0.517-1.422-1.032-2.16-1.55c-0.85-0.59-1.736-1.219-2.658-1.883c-0.923-0.665-1.764-1.439-2.52-2.326
			c-0.757-0.886-1.376-1.919-1.855-3.101c-0.48-1.181-0.72-2.565-0.72-4.153c0-1.55,0.268-2.952,0.803-4.208
			c0.535-1.255,1.273-2.325,2.215-3.212c0.941-0.886,2.067-1.568,3.378-2.049c1.31-0.479,2.722-0.72,4.236-0.72
			c1.476,0,2.842,0.186,4.098,0.554c1.254,0.37,2.307,0.812,3.156,1.329l-1.55,3.932c-0.775-0.517-1.616-0.914-2.52-1.19
			c-0.905-0.277-1.855-0.415-2.852-0.415c-1.809,0-3.258,0.489-4.347,1.467c-1.089,0.979-1.633,2.409-1.633,4.292
			c0,1.033,0.175,1.938,0.526,2.713c0.351,0.775,0.812,1.477,1.384,2.104c0.572,0.628,1.236,1.2,1.994,1.716
			c0.756,0.518,1.559,1.053,2.409,1.606c0.849,0.554,1.716,1.163,2.603,1.827c0.886,0.664,1.689,1.431,2.409,2.298
			c0.72,0.868,1.31,1.883,1.772,3.046c0.461,1.162,0.692,2.538,0.692,4.125c0,1.439-0.221,2.806-0.664,4.098
			c-0.443,1.293-1.135,2.428-2.077,3.405c-0.941,0.979-2.123,1.754-3.544,2.326c-1.421,0.571-3.092,0.858-5.011,0.858
			c-1.772,0-3.322-0.204-4.651-0.609c-1.329-0.406-3.716-1.451-4.75-2.116v-4.406l2.677,1.167c0.96,0.591,2.025,0.824,3.042,1.175
			C100.473,195.443,101.645,195.617,102.974,195.617z"/>
		<path fill-opacity="0.2" d="M121.579,170.589c0.959-0.405,1.974-0.729,3.045-0.969c1.07-0.24,2.233-0.36,3.488-0.36
			c2.583,0,4.688,0.803,6.313,2.409c1.623,1.605,2.436,4.107,2.436,7.503v19.27c-1.33,0.37-2.686,0.665-4.07,0.887
			c-1.384,0.221-2.741,0.332-4.07,0.332s-2.575-0.166-3.738-0.499c-1.163-0.332-2.179-0.866-3.045-1.605
			c-0.868-0.738-1.56-1.67-2.077-2.796c-0.517-1.126-0.775-2.501-0.775-4.126c0-1.513,0.23-2.832,0.692-3.959
			c0.461-1.126,1.098-2.067,1.911-2.824c0.812-0.756,1.772-1.329,2.879-1.716c1.107-0.388,2.307-0.582,3.599-0.582
			c1.218,0,2.565,0.148,4.042,0.443v-2.658c0-2.141-0.415-3.636-1.246-4.485c-0.831-0.849-2.021-1.273-3.572-1.273
			c-0.85,0-1.652,0.083-2.409,0.249c-0.757,0.166-1.56,0.435-2.409,0.803L121.579,170.589z M123.849,190.579
			c0,1.698,0.443,2.953,1.329,3.765c0.886,0.812,2.141,1.219,3.766,1.219c0.997,0,2.085-0.129,3.267-0.388v-9.247
			c-1.107-0.296-2.197-0.443-3.267-0.443c-0.702,0-1.366,0.083-1.994,0.249c-0.628,0.166-1.172,0.443-1.633,0.831
			c-0.462,0.388-0.822,0.904-1.08,1.55C123.978,188.761,123.849,189.582,123.849,190.579z"/>
		<path fill-opacity="0.2" d="M145.609,170.589c0.961-0.405,1.975-0.729,3.047-0.969c1.07-0.24,2.232-0.36,3.488-0.36
			c2.584,0,4.688,0.803,6.312,2.409c1.623,1.605,2.436,4.107,2.436,7.503v19.27c-1.328,0.37-2.686,0.665-4.068,0.887
			c-1.385,0.221-2.742,0.332-4.07,0.332c-1.33,0-2.576-0.166-3.738-0.499c-1.162-0.332-2.178-0.866-3.045-1.605
			c-0.869-0.738-1.561-1.67-2.076-2.796c-0.518-1.126-0.775-2.501-0.775-4.126c0-1.513,0.229-2.832,0.691-3.959
			c0.461-1.126,1.098-2.067,1.91-2.824c0.812-0.756,1.771-1.329,2.879-1.716c1.107-0.388,2.307-0.582,3.6-0.582
			c1.219,0,2.566,0.148,4.043,0.443v-2.658c0-2.141-0.416-3.636-1.246-4.485c-0.83-0.849-2.021-1.273-3.572-1.273
			c-0.85,0-1.652,0.083-2.408,0.249c-0.758,0.166-1.561,0.435-2.408,0.803L145.609,170.589z M147.881,190.579
			c0,1.698,0.443,2.953,1.328,3.765c0.887,0.812,2.141,1.219,3.766,1.219c0.996,0,2.086-0.129,3.268-0.388v-9.247
			c-1.107-0.296-2.197-0.443-3.268-0.443c-0.701,0-1.365,0.083-1.994,0.249c-0.627,0.166-1.172,0.443-1.633,0.831
			s-0.822,0.904-1.08,1.55C148.01,188.761,147.881,189.582,147.881,190.579z"/>
		<path fill-opacity="0.2" d="M174.293,195.617c1.994,0,3.535-0.554,4.623-1.661c1.09-1.107,1.635-2.603,1.635-4.484
			c0-0.997-0.166-1.883-0.5-2.658c-0.332-0.775-0.766-1.477-1.301-2.104c-0.535-0.627-1.154-1.199-1.855-1.717
			c-0.701-0.517-1.42-1.032-2.158-1.55c-0.85-0.59-1.736-1.219-2.658-1.883c-0.924-0.665-1.764-1.439-2.52-2.326
			c-0.758-0.886-1.375-1.919-1.855-3.101c-0.48-1.181-0.719-2.565-0.719-4.153c0-1.55,0.266-2.952,0.803-4.208
			c0.533-1.255,1.273-2.325,2.215-3.212c0.941-0.886,2.066-1.568,3.377-2.049c1.311-0.479,2.723-0.72,4.236-0.72
			c1.477,0,2.842,0.186,4.098,0.554c1.254,0.37,2.307,0.812,3.156,1.329l-1.551,3.932c-0.775-0.517-1.615-0.914-2.52-1.19
			c-0.904-0.277-1.855-0.415-2.852-0.415c-1.809,0-3.258,0.489-4.346,1.467c-1.09,0.979-1.635,2.409-1.635,4.292
			c0,1.033,0.176,1.938,0.527,2.713c0.35,0.775,0.811,1.477,1.383,2.104s1.236,1.2,1.994,1.716c0.756,0.518,1.559,1.053,2.408,1.606
			s1.717,1.163,2.604,1.827c0.885,0.664,1.688,1.431,2.408,2.298c0.721,0.868,1.311,1.883,1.771,3.046
			c0.461,1.162,0.693,2.538,0.693,4.125c0,1.439-0.223,2.806-0.666,4.098c-0.441,1.293-1.135,2.428-2.076,3.405
			c-0.941,0.979-2.123,1.754-3.543,2.326c-1.422,0.571-3.092,0.858-5.012,0.858c-1.771,0-3.322-0.204-4.652-0.609
			c-1.328-0.406-2.51-0.941-3.543-1.606l1.551-3.986c0.959,0.591,1.947,1.062,2.963,1.412
			C171.791,195.443,172.965,195.617,174.293,195.617z"/>
	</g>
	<path fill="#FBFDFF" d="M101.974,194.617c1.993,0,3.534-0.554,4.624-1.661c1.088-1.107,1.633-2.603,1.633-4.484
		c0-0.997-0.166-1.883-0.498-2.658c-0.333-0.775-0.767-1.477-1.301-2.104c-0.536-0.627-1.154-1.199-1.855-1.717
		c-0.702-0.517-1.422-1.032-2.16-1.55c-0.85-0.59-1.736-1.219-2.658-1.883c-0.923-0.665-1.764-1.439-2.52-2.326
		c-0.757-0.886-1.376-1.919-1.855-3.101c-0.48-1.181-0.72-2.565-0.72-4.153c0-1.55,0.268-2.952,0.803-4.208
		c0.535-1.255,1.273-2.325,2.215-3.212c0.941-0.886,2.067-1.568,3.378-2.049c1.31-0.479,2.722-0.72,4.236-0.72
		c1.476,0,2.842,0.186,4.098,0.554c1.254,0.37,2.307,0.812,3.156,1.329l-1.55,3.932c-0.775-0.517-1.616-0.914-2.52-1.19
		c-0.905-0.277-1.855-0.415-2.852-0.415c-1.809,0-3.258,0.489-4.347,1.467c-1.089,0.979-1.633,2.409-1.633,4.292
		c0,1.033,0.175,1.938,0.526,2.713c0.351,0.775,0.812,1.477,1.384,2.104c0.572,0.628,1.236,1.2,1.994,1.716
		c0.756,0.518,1.559,1.053,2.409,1.606c0.849,0.554,1.716,1.163,2.603,1.827c0.886,0.664,1.689,1.431,2.409,2.298
		c0.72,0.868,1.31,1.883,1.772,3.046c0.461,1.162,0.692,2.538,0.692,4.125c0,1.439-0.221,2.806-0.664,4.098
		c-0.443,1.293-1.135,2.428-2.077,3.405c-0.941,0.979-2.123,1.754-3.544,2.326c-1.421,0.571-3.092,0.858-5.011,0.858
		c-1.772,0-3.322-0.204-4.651-0.609c-1.329-0.406-3.716-1.451-4.75-2.116v-4.406l2.677,1.167c0.96,0.591,2.025,0.824,3.042,1.175
		C99.473,194.443,100.645,194.617,101.974,194.617z"/>
	<path fill="#FBFDFF" d="M120.579,169.589c0.959-0.405,1.974-0.729,3.045-0.969c1.07-0.24,2.233-0.36,3.488-0.36
		c2.583,0,4.688,0.803,6.313,2.409c1.623,1.605,2.436,4.107,2.436,7.503v19.27c-1.33,0.37-2.686,0.665-4.07,0.887
		c-1.384,0.221-2.741,0.332-4.07,0.332s-2.575-0.166-3.738-0.499c-1.163-0.332-2.179-0.866-3.045-1.605
		c-0.868-0.738-1.56-1.67-2.077-2.796c-0.517-1.126-0.775-2.501-0.775-4.126c0-1.513,0.23-2.832,0.692-3.959
		c0.461-1.126,1.098-2.067,1.911-2.824c0.812-0.756,1.772-1.329,2.879-1.716c1.107-0.388,2.307-0.582,3.599-0.582
		c1.218,0,2.565,0.148,4.042,0.443v-2.658c0-2.141-0.415-3.636-1.246-4.485c-0.831-0.849-2.021-1.273-3.572-1.273
		c-0.85,0-1.652,0.083-2.409,0.249c-0.757,0.166-1.56,0.435-2.409,0.803L120.579,169.589z M122.849,189.579
		c0,1.698,0.443,2.953,1.329,3.765c0.886,0.812,2.141,1.219,3.766,1.219c0.997,0,2.085-0.129,3.267-0.388v-9.247
		c-1.107-0.296-2.197-0.443-3.267-0.443c-0.702,0-1.366,0.083-1.994,0.249c-0.628,0.166-1.172,0.443-1.633,0.831
		c-0.462,0.388-0.822,0.904-1.08,1.55C122.978,187.761,122.849,188.582,122.849,189.579z"/>
	<path fill="#FBFDFF" d="M144.609,169.589c0.961-0.405,1.975-0.729,3.047-0.969c1.07-0.24,2.232-0.36,3.488-0.36
		c2.584,0,4.688,0.803,6.312,2.409c1.623,1.605,2.436,4.107,2.436,7.503v19.27c-1.328,0.37-2.686,0.665-4.068,0.887
		c-1.385,0.221-2.742,0.332-4.07,0.332c-1.33,0-2.576-0.166-3.738-0.499c-1.162-0.332-2.178-0.866-3.045-1.605
		c-0.869-0.738-1.561-1.67-2.076-2.796c-0.518-1.126-0.775-2.501-0.775-4.126c0-1.513,0.229-2.832,0.691-3.959
		c0.461-1.126,1.098-2.067,1.91-2.824c0.812-0.756,1.771-1.329,2.879-1.716c1.107-0.388,2.307-0.582,3.6-0.582
		c1.219,0,2.566,0.148,4.043,0.443v-2.658c0-2.141-0.416-3.636-1.246-4.485c-0.83-0.849-2.021-1.273-3.572-1.273
		c-0.85,0-1.652,0.083-2.408,0.249c-0.758,0.166-1.561,0.435-2.408,0.803L144.609,169.589z M146.881,189.579
		c0,1.698,0.443,2.953,1.328,3.765c0.887,0.812,2.141,1.219,3.766,1.219c0.996,0,2.086-0.129,3.268-0.388v-9.247
		c-1.107-0.296-2.197-0.443-3.268-0.443c-0.701,0-1.365,0.083-1.994,0.249c-0.627,0.166-1.172,0.443-1.633,0.831
		s-0.822,0.904-1.08,1.55C147.01,187.761,146.881,188.582,146.881,189.579z"/>
	<path fill="#FBFDFF" d="M173.293,194.617c1.994,0,3.535-0.554,4.623-1.661c1.09-1.107,1.635-2.603,1.635-4.484
		c0-0.997-0.166-1.883-0.5-2.658c-0.332-0.775-0.766-1.477-1.301-2.104c-0.535-0.627-1.154-1.199-1.855-1.717
		c-0.701-0.517-1.42-1.032-2.158-1.55c-0.85-0.59-1.736-1.219-2.658-1.883c-0.924-0.665-1.764-1.439-2.52-2.326
		c-0.758-0.886-1.375-1.919-1.855-3.101c-0.48-1.181-0.719-2.565-0.719-4.153c0-1.55,0.266-2.952,0.803-4.208
		c0.533-1.255,1.273-2.325,2.215-3.212c0.941-0.886,2.066-1.568,3.377-2.049c1.311-0.479,2.723-0.72,4.236-0.72
		c1.477,0,2.842,0.186,4.098,0.554c1.254,0.37,2.307,0.812,3.156,1.329l-1.551,3.932c-0.775-0.517-1.615-0.914-2.52-1.19
		c-0.904-0.277-1.855-0.415-2.852-0.415c-1.809,0-3.258,0.489-4.346,1.467c-1.09,0.979-1.635,2.409-1.635,4.292
		c0,1.033,0.176,1.938,0.527,2.713c0.35,0.775,0.811,1.477,1.383,2.104s1.236,1.2,1.994,1.716c0.756,0.518,1.559,1.053,2.408,1.606
		s1.717,1.163,2.604,1.827c0.885,0.664,1.688,1.431,2.408,2.298c0.721,0.868,1.311,1.883,1.771,3.046
		c0.461,1.162,0.693,2.538,0.693,4.125c0,1.439-0.223,2.806-0.666,4.098c-0.441,1.293-1.135,2.428-2.076,3.405
		c-0.941,0.979-2.123,1.754-3.543,2.326c-1.422,0.571-3.092,0.858-5.012,0.858c-1.771,0-3.322-0.204-4.652-0.609
		c-1.328-0.406-2.51-0.941-3.543-1.606l1.551-3.986c0.959,0.591,1.947,1.062,2.963,1.412
		C170.791,194.443,171.965,194.617,173.293,194.617z"/>
</g>
</svg>
